<?xml version="1.0" standalone="no"?>
<!DOCTYPE svg PUBLIC "-//W3C//DTD SVG 20010904//EN"
 "http://www.w3.org/TR/2001/REC-SVG-20010904/DTD/svg10.dtd">
<svg version="1.0" xmlns="http://www.w3.org/2000/svg"
 width="512.000000pt" height="512.000000pt" viewBox="0 0 512.000000 512.000000"
 preserveAspectRatio="xMidYMid meet">
<metadata>
Created by potrace 1.14, written by Peter Selinger 2001-2017
</metadata>
<g transform="translate(0.000000,512.000000) scale(0.100000,-0.100000)"
fill="#000000" stroke="none">
<path d="M2162 4773 c-41 -8 -100 -74 -108 -121 l-7 -42 -251 0 c-138 0 -381
-1 -541 -2 -270 -3 -292 -4 -323 -23 -61 -37 -76 -75 -78 -201 -2 -108 -1
-112 20 -116 17 -2 3281 -2 3368 1 l27 1 -3 114 c-2 102 -5 118 -26 149 -50
73 -40 72 -475 74 -214 2 -458 3 -541 3 l-151 0 -7 42 c-8 51 -66 112 -116
122 -35 7 -751 6 -788 -1z"/>
<path d="M1031 3920 c-5 -3 -7 -14 -5 -25 2 -11 6 -47 9 -80 3 -33 7 -78 10
-100 3 -22 7 -67 10 -100 6 -73 19 -207 30 -300 2 -22 7 -71 10 -110 4 -38 8
-86 10 -105 2 -19 6 -66 10 -103 3 -37 8 -76 10 -86 2 -9 6 -55 10 -102 4 -46
8 -97 10 -114 2 -16 7 -61 10 -100 3 -38 8 -81 10 -95 2 -14 6 -56 10 -95 3
-38 8 -86 10 -105 2 -19 7 -64 10 -100 4 -36 8 -83 11 -105 2 -22 6 -62 8 -90
10 -104 27 -272 31 -310 2 -22 9 -92 15 -155 6 -63 13 -135 16 -160 5 -49 9
-87 18 -195 4 -38 9 -86 11 -105 2 -19 7 -62 10 -95 3 -33 8 -78 10 -100 2
-22 7 -65 9 -95 14 -149 19 -177 37 -226 23 -62 85 -135 143 -169 95 -56 67
-54 1032 -55 925 0 956 1 1037 42 79 39 154 128 177 208 5 17 11 59 15 93 3
34 8 78 10 97 3 19 7 64 10 100 3 36 8 81 10 100 3 19 7 66 10 105 3 38 7 83
10 100 5 34 13 112 20 200 8 95 15 167 20 210 6 46 13 113 20 200 3 33 10 101
15 150 5 50 12 117 15 150 6 67 14 142 20 195 2 19 7 69 10 110 4 41 9 89 11
105 2 17 6 64 9 105 3 41 8 82 10 90 2 8 7 56 11 105 3 50 8 98 10 109 2 10 6
53 9 95 4 42 8 86 10 98 2 12 6 57 10 100 4 43 8 85 10 93 2 8 7 58 11 110 3
52 8 97 9 100 2 3 6 46 10 95 4 50 9 104 11 120 2 17 7 64 10 105 3 41 7 79 8
85 1 10 -3047 16 -3063 5z m2439 -514 c63 -10 118 -80 115 -146 -3 -55 -17
-243 -20 -260 -2 -8 -6 -60 -9 -115 -4 -55 -9 -111 -11 -125 -2 -14 -6 -65
-10 -115 -8 -109 -13 -170 -20 -250 -11 -120 -15 -171 -20 -235 -3 -36 -7 -90
-10 -120 -3 -30 -7 -84 -10 -120 -3 -36 -7 -90 -10 -120 -12 -133 -17 -188
-20 -240 -2 -30 -6 -84 -9 -120 -4 -36 -8 -91 -11 -122 -13 -158 -18 -185 -35
-213 -44 -71 -167 -102 -240 -59 -59 34 -75 66 -75 147 1 65 11 217 20 292 2
17 6 71 10 120 4 50 8 106 10 125 2 19 6 73 10 120 4 47 8 101 10 120 2 19 6
71 10 115 3 44 8 96 10 115 2 19 7 76 10 125 3 50 8 101 10 115 2 14 6 66 10
115 3 50 8 108 10 130 2 22 6 76 10 120 3 44 8 100 10 125 8 80 15 164 20 230
9 123 16 154 41 187 35 46 95 75 139 67 11 -1 36 -5 55 -8z m-1697 -12 c44
-22 85 -70 96 -113 5 -20 12 -70 16 -111 3 -41 8 -95 10 -120 3 -25 7 -81 10
-125 3 -44 8 -100 10 -125 7 -69 20 -231 30 -365 3 -44 8 -96 10 -115 2 -19 7
-69 10 -110 7 -92 14 -181 20 -240 2 -25 7 -83 10 -130 4 -47 8 -96 10 -110 2
-14 6 -65 10 -115 3 -49 8 -108 10 -130 5 -43 15 -168 20 -254 11 -158 -140
-257 -265 -175 -62 41 -70 65 -85 264 -5 63 -10 126 -20 240 -12 136 -15 170
-20 245 -4 44 -8 96 -10 115 -2 19 -6 76 -10 125 -3 50 -8 101 -10 115 -2 14
-6 68 -10 120 -3 52 -8 111 -10 130 -4 34 -7 68 -20 230 -3 41 -8 95 -10 120
-2 25 -7 81 -10 125 -4 44 -8 96 -10 115 -11 117 -18 219 -16 249 3 58 55 137
101 154 31 11 102 6 133 -9z m878 -6 c25 -14 46 -37 59 -63 20 -41 20 -62 20
-1106 0 -1016 -1 -1066 -19 -1105 -53 -117 -242 -119 -301 -4 -19 37 -20 67
-20 1103 0 735 3 1074 11 1094 12 33 56 82 84 93 40 17 126 11 166 -12z"/>
</g>
</svg>
